<?xml version="1.0" standalone="no"?>
<!DOCTYPE svg PUBLIC "-//W3C//DTD SVG 20010904//EN"
 "http://www.w3.org/TR/2001/REC-SVG-20010904/DTD/svg10.dtd">
<svg version="1.0" xmlns="http://www.w3.org/2000/svg"
 width="740.000000pt" height="416.000000pt" viewBox="0 0 740.000000 416.000000"
 preserveAspectRatio="xMidYMid meet">

<g transform="translate(0.000000,416.000000) scale(0.100000,-0.100000)"
fill="#000000" stroke="none">
<path d="M0 2080 l0 -2080 1042 0 c878 0 1040 2 1028 14 -8 7 -60 44 -115 81
-222 151 -285 197 -281 204 3 4 -3 7 -12 7 -17 0 -276 176 -288 196 -8 13 -9
14 -44 407 -17 183 -30 337 -28 342 2 4 82 -89 178 -208 96 -119 180 -221 185
-227 6 -6 29 -33 50 -61 22 -27 110 -135 195 -239 85 -103 173 -211 195 -240
22 -28 82 -102 133 -164 l94 -112 1998 0 1997 0 46 69 46 69 63 -18 c35 -10
89 -26 121 -35 l58 -16 -20 -34 -20 -35 389 0 390 0 0 2080 0 2080 -3700 0
-3700 0 0 -2080z m415 1899 c88 -12 164 -25 168 -29 9 -8 87 -225 87 -241 0
-7 -15 -9 -37 -5 -21 3 -105 15 -188 26 -82 12 -151 23 -153 24 -7 7 -49 246
-43 246 3 0 78 -9 166 -21z m3040 -679 c43 -74 96 -163 117 -197 21 -34 38
-65 38 -68 0 -3 12 -23 26 -45 28 -42 28 -42 -16 -92 -8 -9 -94 -108 -190
-220 -96 -113 -176 -199 -178 -193 -2 6 22 219 53 473 30 254 55 470 55 479 0
24 7 14 95 -137z m-1716 -715 c45 -110 100 -244 122 -297 24 -56 38 -102 33
-110 -8 -14 -130 -163 -154 -188 -8 -9 -55 -64 -105 -123 -49 -58 -90 -105
-91 -104 -1 1 -32 76 -69 167 -37 91 -101 245 -141 343 -41 98 -77 189 -80
202 -5 19 13 39 128 137 73 63 160 138 193 167 70 62 50 85 164 -194z m954
-1002 c-32 -37 -68 -79 -79 -93 -12 -14 -41 -48 -65 -76 -24 -27 -57 -66 -74
-86 -16 -20 -57 -68 -90 -107 l-60 -71 -162 0 c-90 0 -163 2 -163 4 0 2 75 53
167 112 92 60 260 171 373 246 113 75 207 137 208 137 2 1 -23 -29 -55 -66z"/>
</g>
</svg>
